<mxfile host="app.diagrams.net" agent="Mozilla/5.0 (Windows NT 10.0; Win64; x64) AppleWebKit/537.36 (KHTML, like Gecko) Chrome/131.0.0.0 Safari/537.36 Edg/131.0.0.0" version="25.0.3">
  <diagram id="C5RBs43oDa-KdzZeNtuy" name="Page-1">
    <mxGraphModel dx="1626" dy="1613" grid="1" gridSize="10" guides="1" tooltips="1" connect="1" arrows="1" fold="1" page="1" pageScale="1" pageWidth="1169" pageHeight="827" math="0" shadow="0">
      <root>
        <mxCell id="WIyWlLk6GJQsqaUBKTNV-0" />
        <mxCell id="WIyWlLk6GJQsqaUBKTNV-1" parent="WIyWlLk6GJQsqaUBKTNV-0" />
        <mxCell id="zkfFHV4jXpPFQw0GAbJ--0" value="Evento" style="swimlane;fontStyle=2;align=center;verticalAlign=top;childLayout=stackLayout;horizontal=1;startSize=26;horizontalStack=0;resizeParent=1;resizeLast=0;collapsible=1;marginBottom=0;rounded=1;shadow=0;strokeWidth=1;" parent="WIyWlLk6GJQsqaUBKTNV-1" vertex="1">
          <mxGeometry x="485" y="-779" width="200" height="260" as="geometry">
            <mxRectangle x="230" y="140" width="160" height="26" as="alternateBounds" />
          </mxGeometry>
        </mxCell>
        <mxCell id="zkfFHV4jXpPFQw0GAbJ--3" value="nome: String&#xa;data: Date&#xa;Location: StringCapienza: int&#xa;TODO: DATABASE&#xa;" style="text;align=left;verticalAlign=top;spacingLeft=4;spacingRight=4;overflow=hidden;rotatable=0;points=[[0,0.5],[1,0.5]];portConstraint=eastwest;rounded=1;shadow=0;html=0;" parent="zkfFHV4jXpPFQw0GAbJ--0" vertex="1">
          <mxGeometry y="26" width="200" height="74" as="geometry" />
        </mxCell>
        <mxCell id="zkfFHV4jXpPFQw0GAbJ--4" value="" style="line;html=1;strokeWidth=1;align=left;verticalAlign=middle;spacingTop=-1;spacingLeft=3;spacingRight=3;rotatable=0;labelPosition=right;points=[];portConstraint=eastwest;rounded=1;" parent="zkfFHV4jXpPFQw0GAbJ--0" vertex="1">
          <mxGeometry y="100" width="200" height="8" as="geometry" />
        </mxCell>
        <mxCell id="zkfFHV4jXpPFQw0GAbJ--5" value="getName():String&#xa;getData():Date&#xa;getLocation():String&#xa;getCapienza():int&#xa;setName(String)&#xa;setData(Date)&#xa;setLocation(String)&#xa;setCapienza(int)&#xa;getListaInviti(): ArrayList&lt;Inviti&gt;&#xa;addInvito(Invito)&#xa;&#xa;" style="text;align=left;verticalAlign=top;spacingLeft=4;spacingRight=4;overflow=hidden;rotatable=0;points=[[0,0.5],[1,0.5]];portConstraint=eastwest;rounded=1;" parent="zkfFHV4jXpPFQw0GAbJ--0" vertex="1">
          <mxGeometry y="108" width="200" height="152" as="geometry" />
        </mxCell>
        <mxCell id="r1slfkMwYTtcWdOaAPJ--2" value="Persona" style="swimlane;fontStyle=1;align=center;verticalAlign=top;childLayout=stackLayout;horizontal=1;startSize=26;horizontalStack=0;resizeParent=1;resizeParentMax=0;resizeLast=0;collapsible=1;marginBottom=0;whiteSpace=wrap;html=1;rounded=1;" parent="WIyWlLk6GJQsqaUBKTNV-1" vertex="1">
          <mxGeometry x="790" y="-373" width="160" height="100" as="geometry" />
        </mxCell>
        <mxCell id="r1slfkMwYTtcWdOaAPJ--3" value="&lt;div&gt;CF:Stringa&lt;/div&gt;&lt;div&gt;Nome:String&lt;/div&gt;&lt;div&gt;Cognome:String&lt;br&gt;&lt;/div&gt;&lt;div&gt;email: String&lt;/div&gt;" style="text;strokeColor=none;fillColor=none;align=left;verticalAlign=top;spacingLeft=4;spacingRight=4;overflow=hidden;rotatable=0;points=[[0,0.5],[1,0.5]];portConstraint=eastwest;whiteSpace=wrap;html=1;" parent="r1slfkMwYTtcWdOaAPJ--2" vertex="1">
          <mxGeometry y="26" width="160" height="74" as="geometry" />
        </mxCell>
        <mxCell id="r1slfkMwYTtcWdOaAPJ--26" value="Biglietto" style="swimlane;fontStyle=1;align=center;verticalAlign=top;childLayout=stackLayout;horizontal=1;startSize=26;horizontalStack=0;resizeParent=1;resizeParentMax=0;resizeLast=0;collapsible=1;marginBottom=0;whiteSpace=wrap;html=1;rounded=1;" parent="WIyWlLk6GJQsqaUBKTNV-1" vertex="1">
          <mxGeometry x="800" y="-519" width="140" height="98" as="geometry" />
        </mxCell>
        <mxCell id="r1slfkMwYTtcWdOaAPJ--27" value="&lt;div&gt;ID:String&lt;/div&gt;&lt;div&gt;&lt;br&gt;&lt;/div&gt;" style="text;strokeColor=none;fillColor=none;align=left;verticalAlign=top;spacingLeft=4;spacingRight=4;overflow=hidden;rotatable=0;points=[[0,0.5],[1,0.5]];portConstraint=eastwest;whiteSpace=wrap;html=1;" parent="r1slfkMwYTtcWdOaAPJ--26" vertex="1">
          <mxGeometry y="26" width="140" height="24" as="geometry" />
        </mxCell>
        <mxCell id="r1slfkMwYTtcWdOaAPJ--28" value="" style="line;strokeWidth=1;fillColor=none;align=left;verticalAlign=middle;spacingTop=-1;spacingLeft=3;spacingRight=3;rotatable=0;labelPosition=right;points=[];portConstraint=eastwest;strokeColor=inherit;rounded=1;" parent="r1slfkMwYTtcWdOaAPJ--26" vertex="1">
          <mxGeometry y="50" width="140" height="8" as="geometry" />
        </mxCell>
        <mxCell id="r1slfkMwYTtcWdOaAPJ--29" value="&lt;div&gt;getID():String&lt;/div&gt;&lt;div&gt;stampaBiglietto():String&lt;br&gt;&lt;/div&gt;" style="text;strokeColor=none;fillColor=none;align=left;verticalAlign=top;spacingLeft=4;spacingRight=4;overflow=hidden;rotatable=0;points=[[0,0.5],[1,0.5]];portConstraint=eastwest;whiteSpace=wrap;html=1;" parent="r1slfkMwYTtcWdOaAPJ--26" vertex="1">
          <mxGeometry y="58" width="140" height="40" as="geometry" />
        </mxCell>
        <mxCell id="r1slfkMwYTtcWdOaAPJ--52" style="edgeStyle=orthogonalEdgeStyle;rounded=1;orthogonalLoop=1;jettySize=auto;html=1;" parent="WIyWlLk6GJQsqaUBKTNV-1" source="r1slfkMwYTtcWdOaAPJ--26" target="r1slfkMwYTtcWdOaAPJ--2" edge="1">
          <mxGeometry relative="1" as="geometry" />
        </mxCell>
        <mxCell id="r1slfkMwYTtcWdOaAPJ--53" value="" style="endArrow=open;html=1;endSize=12;startArrow=diamondThin;startSize=14;startFill=1;edgeStyle=orthogonalEdgeStyle;align=left;verticalAlign=bottom;rounded=1;" parent="WIyWlLk6GJQsqaUBKTNV-1" source="r1slfkMwYTtcWdOaAPJ--2" target="Rmf4fN7mxsdTf48tF9wf-11" edge="1">
          <mxGeometry x="-1" y="3" relative="1" as="geometry">
            <mxPoint x="729.83" y="-681.784" as="sourcePoint" />
            <mxPoint x="850" y="-390" as="targetPoint" />
            <Array as="points">
              <mxPoint x="1020" y="-328" />
            </Array>
            <mxPoint as="offset" />
          </mxGeometry>
        </mxCell>
        <mxCell id="r1slfkMwYTtcWdOaAPJ--65" value="Ingresso" style="swimlane;fontStyle=1;align=center;verticalAlign=top;childLayout=stackLayout;horizontal=1;startSize=26;horizontalStack=0;resizeParent=1;resizeParentMax=0;resizeLast=0;collapsible=1;marginBottom=0;whiteSpace=wrap;html=1;rounded=1;" parent="WIyWlLk6GJQsqaUBKTNV-1" vertex="1">
          <mxGeometry x="40" y="-243" width="160" height="60" as="geometry" />
        </mxCell>
        <mxCell id="r1slfkMwYTtcWdOaAPJ--67" value="" style="line;strokeWidth=1;fillColor=none;align=left;verticalAlign=middle;spacingTop=-1;spacingLeft=3;spacingRight=3;rotatable=0;labelPosition=right;points=[];portConstraint=eastwest;strokeColor=inherit;rounded=1;" parent="r1slfkMwYTtcWdOaAPJ--65" vertex="1">
          <mxGeometry y="26" width="160" height="8" as="geometry" />
        </mxCell>
        <mxCell id="r1slfkMwYTtcWdOaAPJ--68" value="readQR();" style="text;strokeColor=none;fillColor=none;align=left;verticalAlign=top;spacingLeft=4;spacingRight=4;overflow=hidden;rotatable=0;points=[[0,0.5],[1,0.5]];portConstraint=eastwest;whiteSpace=wrap;html=1;" parent="r1slfkMwYTtcWdOaAPJ--65" vertex="1">
          <mxGeometry y="34" width="160" height="26" as="geometry" />
        </mxCell>
        <mxCell id="r1slfkMwYTtcWdOaAPJ--69" value="Guardaroba" style="swimlane;fontStyle=1;align=center;verticalAlign=top;childLayout=stackLayout;horizontal=1;startSize=26;horizontalStack=0;resizeParent=1;resizeParentMax=0;resizeLast=0;collapsible=1;marginBottom=0;whiteSpace=wrap;html=1;rounded=1;" parent="WIyWlLk6GJQsqaUBKTNV-1" vertex="1">
          <mxGeometry x="280" y="-243" width="160" height="180" as="geometry" />
        </mxCell>
        <mxCell id="r1slfkMwYTtcWdOaAPJ--70" value="&lt;div&gt;sequenzaDiPartenza: int&lt;/div&gt;&lt;div&gt;maxGrucce; int&lt;/div&gt;&lt;div&gt;grucceAssegnate; int&lt;br&gt;&lt;/div&gt;" style="text;strokeColor=none;fillColor=none;align=left;verticalAlign=top;spacingLeft=4;spacingRight=4;overflow=hidden;rotatable=0;points=[[0,0.5],[1,0.5]];portConstraint=eastwest;whiteSpace=wrap;html=1;" parent="r1slfkMwYTtcWdOaAPJ--69" vertex="1">
          <mxGeometry y="26" width="160" height="54" as="geometry" />
        </mxCell>
        <mxCell id="r1slfkMwYTtcWdOaAPJ--71" value="" style="line;strokeWidth=1;fillColor=none;align=left;verticalAlign=middle;spacingTop=-1;spacingLeft=3;spacingRight=3;rotatable=0;labelPosition=right;points=[];portConstraint=eastwest;strokeColor=inherit;rounded=1;" parent="r1slfkMwYTtcWdOaAPJ--69" vertex="1">
          <mxGeometry y="80" width="160" height="8" as="geometry" />
        </mxCell>
        <mxCell id="r1slfkMwYTtcWdOaAPJ--72" value="&lt;div&gt;readQR();&lt;/div&gt;&lt;div&gt;setMaxGrucce();&lt;/div&gt;&lt;div&gt;setGrucceAssegnate&lt;/div&gt;&lt;div&gt;getGrucceAssegnate&lt;/div&gt;&lt;div&gt;getMaxGrucce;&lt;/div&gt;" style="text;strokeColor=none;fillColor=none;align=left;verticalAlign=top;spacingLeft=4;spacingRight=4;overflow=hidden;rotatable=0;points=[[0,0.5],[1,0.5]];portConstraint=eastwest;whiteSpace=wrap;html=1;" parent="r1slfkMwYTtcWdOaAPJ--69" vertex="1">
          <mxGeometry y="88" width="160" height="92" as="geometry" />
        </mxCell>
        <mxCell id="r1slfkMwYTtcWdOaAPJ--81" value="" style="endArrow=open;html=1;endSize=12;startArrow=diamondThin;startSize=14;startFill=1;edgeStyle=orthogonalEdgeStyle;align=left;verticalAlign=bottom;rounded=1;entryX=0.5;entryY=0;entryDx=0;entryDy=0;" parent="WIyWlLk6GJQsqaUBKTNV-1" source="r1slfkMwYTtcWdOaAPJ--2" target="Rmf4fN7mxsdTf48tF9wf-15" edge="1">
          <mxGeometry x="-1" y="3" relative="1" as="geometry">
            <mxPoint x="1150" y="-553" as="sourcePoint" />
            <mxPoint x="610" y="-390" as="targetPoint" />
            <Array as="points">
              <mxPoint x="700" y="-328" />
            </Array>
          </mxGeometry>
        </mxCell>
        <mxCell id="r1slfkMwYTtcWdOaAPJ--83" value="Extends" style="endArrow=block;endSize=16;endFill=0;html=1;rounded=1;" parent="WIyWlLk6GJQsqaUBKTNV-1" source="r1slfkMwYTtcWdOaAPJ--65" target="Rmf4fN7mxsdTf48tF9wf-21" edge="1">
          <mxGeometry width="160" relative="1" as="geometry">
            <mxPoint x="160" y="-93" as="sourcePoint" />
            <mxPoint x="250" y="-335" as="targetPoint" />
            <Array as="points">
              <mxPoint x="120" y="-273" />
              <mxPoint x="250" y="-273" />
            </Array>
          </mxGeometry>
        </mxCell>
        <mxCell id="r1slfkMwYTtcWdOaAPJ--84" value="Extends" style="endArrow=block;endSize=16;endFill=0;html=1;rounded=1;" parent="WIyWlLk6GJQsqaUBKTNV-1" source="r1slfkMwYTtcWdOaAPJ--69" target="Rmf4fN7mxsdTf48tF9wf-21" edge="1">
          <mxGeometry width="160" relative="1" as="geometry">
            <mxPoint x="130" y="-233" as="sourcePoint" />
            <mxPoint x="250" y="-335" as="targetPoint" />
            <Array as="points">
              <mxPoint x="360" y="-273" />
              <mxPoint x="250" y="-273" />
            </Array>
          </mxGeometry>
        </mxCell>
        <mxCell id="Rmf4fN7mxsdTf48tF9wf-11" value="Staff" style="swimlane;fontStyle=1;align=center;verticalAlign=top;childLayout=stackLayout;horizontal=1;startSize=26;horizontalStack=0;resizeParent=1;resizeParentMax=0;resizeLast=0;collapsible=1;marginBottom=0;whiteSpace=wrap;html=1;rounded=1;" vertex="1" parent="WIyWlLk6GJQsqaUBKTNV-1">
          <mxGeometry x="920" y="-153" width="200" height="110" as="geometry" />
        </mxCell>
        <mxCell id="Rmf4fN7mxsdTf48tF9wf-12" value="&lt;div&gt;numeroMassimoBiglietti: int&lt;/div&gt;&lt;div&gt;password: String&lt;/div&gt;" style="text;strokeColor=none;fillColor=none;align=left;verticalAlign=top;spacingLeft=4;spacingRight=4;overflow=hidden;rotatable=0;points=[[0,0.5],[1,0.5]];portConstraint=eastwest;whiteSpace=wrap;html=1;" vertex="1" parent="Rmf4fN7mxsdTf48tF9wf-11">
          <mxGeometry y="26" width="200" height="34" as="geometry" />
        </mxCell>
        <mxCell id="Rmf4fN7mxsdTf48tF9wf-13" value="" style="line;strokeWidth=1;fillColor=none;align=left;verticalAlign=middle;spacingTop=-1;spacingLeft=3;spacingRight=3;rotatable=0;labelPosition=right;points=[];portConstraint=eastwest;strokeColor=inherit;rounded=1;" vertex="1" parent="Rmf4fN7mxsdTf48tF9wf-11">
          <mxGeometry y="60" width="200" height="8" as="geometry" />
        </mxCell>
        <mxCell id="Rmf4fN7mxsdTf48tF9wf-14" value="&lt;div&gt;apriBanco();&lt;div&gt;aggiungiBiglietto();&lt;/div&gt;&lt;/div&gt;" style="text;strokeColor=none;fillColor=none;align=left;verticalAlign=top;spacingLeft=4;spacingRight=4;overflow=hidden;rotatable=0;points=[[0,0.5],[1,0.5]];portConstraint=eastwest;whiteSpace=wrap;html=1;" vertex="1" parent="Rmf4fN7mxsdTf48tF9wf-11">
          <mxGeometry y="68" width="200" height="42" as="geometry" />
        </mxCell>
        <mxCell id="Rmf4fN7mxsdTf48tF9wf-15" value="Organizzatore" style="swimlane;fontStyle=1;align=center;verticalAlign=top;childLayout=stackLayout;horizontal=1;startSize=26;horizontalStack=0;resizeParent=1;resizeParentMax=0;resizeLast=0;collapsible=1;marginBottom=0;whiteSpace=wrap;html=1;rounded=1;" vertex="1" parent="WIyWlLk6GJQsqaUBKTNV-1">
          <mxGeometry x="600" y="-153" width="200" height="110" as="geometry" />
        </mxCell>
        <mxCell id="Rmf4fN7mxsdTf48tF9wf-16" value="&lt;div&gt;&lt;span style=&quot;background-color: initial;&quot;&gt;password: String&lt;/span&gt;&lt;/div&gt;" style="text;strokeColor=none;fillColor=none;align=left;verticalAlign=top;spacingLeft=4;spacingRight=4;overflow=hidden;rotatable=0;points=[[0,0.5],[1,0.5]];portConstraint=eastwest;whiteSpace=wrap;html=1;" vertex="1" parent="Rmf4fN7mxsdTf48tF9wf-15">
          <mxGeometry y="26" width="200" height="24" as="geometry" />
        </mxCell>
        <mxCell id="Rmf4fN7mxsdTf48tF9wf-17" value="" style="line;strokeWidth=1;fillColor=none;align=left;verticalAlign=middle;spacingTop=-1;spacingLeft=3;spacingRight=3;rotatable=0;labelPosition=right;points=[];portConstraint=eastwest;strokeColor=inherit;rounded=1;" vertex="1" parent="Rmf4fN7mxsdTf48tF9wf-15">
          <mxGeometry y="50" width="200" height="8" as="geometry" />
        </mxCell>
        <mxCell id="Rmf4fN7mxsdTf48tF9wf-18" value="creaEvento()&lt;div&gt;aggiungiBigietto():&lt;/div&gt;&lt;div&gt;aggiungiStaff():&lt;/div&gt;&lt;div&gt;&lt;br&gt;&lt;/div&gt;" style="text;strokeColor=none;fillColor=none;align=left;verticalAlign=top;spacingLeft=4;spacingRight=4;overflow=hidden;rotatable=0;points=[[0,0.5],[1,0.5]];portConstraint=eastwest;whiteSpace=wrap;html=1;" vertex="1" parent="Rmf4fN7mxsdTf48tF9wf-15">
          <mxGeometry y="58" width="200" height="52" as="geometry" />
        </mxCell>
        <mxCell id="Rmf4fN7mxsdTf48tF9wf-19" value="" style="endArrow=diamondThin;endFill=1;endSize=24;html=1;rounded=1;" edge="1" parent="WIyWlLk6GJQsqaUBKTNV-1" source="Rmf4fN7mxsdTf48tF9wf-21" target="zkfFHV4jXpPFQw0GAbJ--0">
          <mxGeometry width="160" relative="1" as="geometry">
            <mxPoint x="250" y="-413" as="sourcePoint" />
            <mxPoint x="561" y="-482" as="targetPoint" />
            <Array as="points">
              <mxPoint x="250" y="-650" />
            </Array>
          </mxGeometry>
        </mxCell>
        <mxCell id="Rmf4fN7mxsdTf48tF9wf-20" value="" style="endArrow=diamondThin;endFill=1;endSize=24;html=1;rounded=1;" edge="1" parent="WIyWlLk6GJQsqaUBKTNV-1" source="r1slfkMwYTtcWdOaAPJ--26" target="zkfFHV4jXpPFQw0GAbJ--0">
          <mxGeometry width="160" relative="1" as="geometry">
            <mxPoint x="225" y="-370" as="sourcePoint" />
            <mxPoint x="495" y="-636" as="targetPoint" />
            <Array as="points">
              <mxPoint x="870" y="-650" />
            </Array>
          </mxGeometry>
        </mxCell>
        <mxCell id="Rmf4fN7mxsdTf48tF9wf-21" value="Abstract Banco" style="swimlane;fontStyle=1;align=center;verticalAlign=top;childLayout=stackLayout;horizontal=1;startSize=26;horizontalStack=0;resizeParent=1;resizeParentMax=0;resizeLast=0;collapsible=1;marginBottom=0;whiteSpace=wrap;html=1;rounded=1;" vertex="1" parent="WIyWlLk6GJQsqaUBKTNV-1">
          <mxGeometry x="180" y="-413" width="140" height="90" as="geometry" />
        </mxCell>
        <mxCell id="Rmf4fN7mxsdTf48tF9wf-22" value="&lt;div&gt;NumeroBanco: int&lt;/div&gt;" style="text;strokeColor=none;fillColor=none;align=left;verticalAlign=top;spacingLeft=4;spacingRight=4;overflow=hidden;rotatable=0;points=[[0,0.5],[1,0.5]];portConstraint=eastwest;whiteSpace=wrap;html=1;" vertex="1" parent="Rmf4fN7mxsdTf48tF9wf-21">
          <mxGeometry y="26" width="140" height="26" as="geometry" />
        </mxCell>
        <mxCell id="Rmf4fN7mxsdTf48tF9wf-23" value="" style="line;strokeWidth=1;fillColor=none;align=left;verticalAlign=middle;spacingTop=-1;spacingLeft=3;spacingRight=3;rotatable=0;labelPosition=right;points=[];portConstraint=eastwest;strokeColor=inherit;rounded=1;" vertex="1" parent="Rmf4fN7mxsdTf48tF9wf-21">
          <mxGeometry y="52" width="140" height="8" as="geometry" />
        </mxCell>
        <mxCell id="Rmf4fN7mxsdTf48tF9wf-24" value="&lt;div&gt;readQR();&lt;/div&gt;" style="text;strokeColor=none;fillColor=none;align=left;verticalAlign=top;spacingLeft=4;spacingRight=4;overflow=hidden;rotatable=0;points=[[0,0.5],[1,0.5]];portConstraint=eastwest;whiteSpace=wrap;html=1;" vertex="1" parent="Rmf4fN7mxsdTf48tF9wf-21">
          <mxGeometry y="60" width="140" height="30" as="geometry" />
        </mxCell>
      </root>
    </mxGraphModel>
  </diagram>
</mxfile>
